# xmcd
#
# Track frame offsets:
#	150
#	22815
#	38347
#	56732
#	72336
#	89208
#	113368
#	134292
#	157817
#	180248
#	194712
#	224243
#	236360
#
# Disc length: 3315 seconds
#
# Revision: 1
# Processed by: cddbd v1.4PL0 Copyright (c) Steve Scherf et al.
# Submitted via: audiograbber 1.81.01
#
DISCID=ad0cf10d
DTITLE=Lösekes Blues Gang - Black CAT
DYEAR=1996
DGENRE=Blues
TTITLE0=I'm gonna leave you
TTITLE1=Never in time
TTITLE2=I need you so bad
TTITLE3=Talk to me
TTITLE4=Sweet as a flower
TTITLE5=The weight
TTITLE6=I got you on my mind
TTITLE7=Black cat
TTITLE8=Looking out
TTITLE9=I need your sex
TTITLE10=Jack, Willie, Slim, the Gumbo and the fried chicken
TTITLE11=I'm a looser
TTITLE12=Hey, good lookin'
EXTD=Blues-Band aus Deutschland
EXTT0=
EXTT1=
EXTT2=
EXTT3=
EXTT4=
EXTT5=
EXTT6=
EXTT7=
EXTT8=
EXTT9=
EXTT10=
EXTT11=
EXTT12=
PLAYORDER=
